<svg xmlns="http://www.w3.org/2000/svg" xmlns:xlink="http://www.w3.org/1999/xlink" viewBox="0 0 69.61 35.64"><defs><style>.cls-1{fill:#004e8b;}.cls-2{fill:url(#linear-gradient);}.cls-3{fill:url(#linear-gradient-2);}.cls-4{font-size:8.27px;fill:#0090d0;font-family:OpenSans, Open Sans;}</style><linearGradient id="linear-gradient" x1="26.2" y1="19.98" x2="69" y2="2.31" gradientTransform="matrix(1, 0, 0, -1, 0, 23.92)" gradientUnits="userSpaceOnUse"><stop offset="0" stop-color="#004e8b"/><stop offset="1" stop-color="#00aeef"/></linearGradient><linearGradient id="linear-gradient-2" x1="32.31" y1="16.37" x2="53.41" y2="16.37" xlink:href="#linear-gradient"/></defs><g id="Layer_2" data-name="Layer 2"><g id="Layer_1-2" data-name="Layer 1"><polygon class="cls-1" points="18.95 8.99 7.29 8.99 7.29 0.01 0.7 0.01 0.7 23.27 7.29 23.27 7.29 13.87 18.95 13.87 18.95 23.27 25.54 23.27 25.54 0.01 18.95 0.01 18.95 8.99"/><path class="cls-2" d="M57.87,0H38.7a11.55,11.55,0,0,1,5.52,1.12c2.1,1.2,3.23,3.39,3.23,6.36s-1.16,5.17-3.29,6.3S39.5,15,36.4,15H32v8.3H44.89l2.16-4.72H59.7l2.07,4.72h7.5ZM49.22,14.06l4.39-9,4,9Z"/><path class="cls-3" d="M40.79,7.47c0-2.42-1.55-2.87-4.81-2.87H32v5.88h4C39.3,10.48,40.79,9.9,40.79,7.47Z"/><text class="cls-4" transform="translate(0 33.4) scale(1.04 1)">IMF USER GROUP</text></g></g></svg>